<svg id="Большая_стрелка_Лево" data-name="Большая стрелка Лево" xmlns="http://www.w3.org/2000/svg" viewBox="0 0 59.84 19.9"><defs><style>.cls-1{fill:#fff;stroke:#201600;stroke-miterlimit:10;}</style></defs><title>big-arrow-left</title><path class="cls-1" d="M49.87,32.32" transform="translate(-15.48 -35.1)"/><path class="cls-1" d="M74.81,45.77V42.7a.38.38,0,0,0-.39-.39H23.89a.39.39,0,0,1-.28-.67l3.44-3.42a.4.4,0,0,0,0-.58l-2.24-2a.39.39,0,0,0-.54,0L16,44.32v1.45l8.27,8.6a.39.39,0,0,0,.53,0l2.26-2a.39.39,0,0,0,0-.57L23.6,48.44a.39.39,0,0,1,.28-.66H74.43a.39.39,0,0,0,.38-.39V45.77" transform="translate(-15.48 -35.1)"/><path class="cls-1" d="M45.62,32.32" transform="translate(-15.48 -35.1)"/></svg>