<svg id="Большая_стрелка_Право" data-name="Большая стрелка Право" xmlns="http://www.w3.org/2000/svg" viewBox="0 0 59.84 19.9"><defs><style>.cls-1{fill:#fff;stroke:#201600;stroke-miterlimit:10;}</style></defs><title>big-arrow-right</title><path class="cls-1" d="M91.84,27.43" transform="translate(-66.4 -4.76)"/><path class="cls-1" d="M66.9,14v3.07a.38.38,0,0,0,.39.39h50.53a.39.39,0,0,1,.28.67l-3.44,3.43a.39.39,0,0,0,0,.57l2.24,1.95a.38.38,0,0,0,.54,0l8.28-8.6V14l-8.28-8.6a.39.39,0,0,0-.53,0l-2.25,2a.39.39,0,0,0,0,.57l3.45,3.43a.39.39,0,0,1-.28.66H67.28a.39.39,0,0,0-.38.39V14" transform="translate(-66.4 -4.76)"/><path class="cls-1" d="M96.09,27.43" transform="translate(-66.4 -4.76)"/></svg>