<svg id="Маленькая_стрелка_Право" data-name="Маленькая стрелка Право" xmlns="http://www.w3.org/2000/svg" viewBox="0 0 41.76 14.7"><defs><style>.cls-1{fill:#fff;stroke:#201600;stroke-miterlimit:10;}</style></defs><title>small-arrow-right</title><path class="cls-1" d="M116.13,64.89l-6.49,6.73a.38.38,0,0,1-.53,0l-1.49-1.36a.38.38,0,0,1,0-.53l1.86-2.15a.38.38,0,0,0-.29-.63H75.62a.38.38,0,0,1-.38-.38v-1.7" transform="translate(-74.74 -57.54)"/><path class="cls-1" d="M116.13,64.89l-6.49-6.73a.38.38,0,0,0-.53,0l-1.49,1.36a.38.38,0,0,0,0,.53l1.86,2.15a.38.38,0,0,1-.29.63H75.62a.38.38,0,0,0-.38.38v1.7" transform="translate(-74.74 -57.54)"/></svg>