<svg id="Маленькая_стрелка_Лево" data-name="Маленькая стрелка Лево" xmlns="http://www.w3.org/2000/svg" viewBox="0 0 41.76 14.7"><defs><style>.cls-1{fill:#fff;stroke:#201600;stroke-miterlimit:10;}</style></defs><title>small-arrow-left</title><path class="cls-1" d="M26,64.89l6.49-6.73a.38.38,0,0,1,.53,0l1.49,1.36a.38.38,0,0,1,0,.53l-1.86,2.15a.38.38,0,0,0,.29.63H66.51a.39.39,0,0,1,.39.38v1.7" transform="translate(-25.64 -57.54)"/><path class="cls-1" d="M26,64.89l6.49,6.73a.38.38,0,0,0,.53,0l1.49-1.36a.38.38,0,0,0,0-.53L32.68,67.6A.38.38,0,0,1,33,67H66.51a.39.39,0,0,0,.39-.38v-1.7" transform="translate(-25.64 -57.54)"/></svg>